<svg viewBox="0 0 32 28"><title>icon-avatar-person</title><path d="M31.452 31.38H1.144a.522.522 0 0 1-.523-.523c0-.116.016-2.865 1.373-5.58.932-1.863 4-2.987 8.247-4.542.602-.22 1.229-.45 1.877-.692v-3.585c-.451-.44-1.501-1.681-1.605-3.785-.297-.226-.532-.652-.669-1.23-.219-.927-.099-2.031.595-2.634l-.093-.303c-.44-1.45-1.257-4.15-.152-5.637.402-.543 1.001-.853 1.785-.925C12.687.537 15.166.027 17.202.027c2.788 0 5.785.921 6.197 2.98.363 1.82-.567 4.166-1.068 5.427l-.154.393c.676.608.79 1.7.574 2.617-.136.579-.373 1.004-.667 1.23-.106 2.145-1.18 3.526-1.605 3.99v3.38c.645.24 1.269.47 1.87.689 4.249 1.557 7.32 2.681 8.253 4.546 1.358 2.714 1.373 5.463 1.373 5.58a.523.523 0 0 1-.523.52zM1.693 30.333h29.209c-.071-.886-.325-2.769-1.235-4.589-.747-1.493-3.806-2.613-7.68-4.03-.706-.259-1.446-.53-2.216-.82a.523.523 0 0 1-.34-.488v-3.953c0-.147.062-.286.17-.385.014-.012 1.445-1.378 1.445-3.735 0-.257.184-.469.427-.514.143-.155.385-.785.323-1.446-.028-.304-.132-.702-.462-.868a.521.521 0 0 1-.288-.467c0-.191.075-.39.313-.992.46-1.16 1.317-3.318 1.014-4.836-.28-1.404-2.814-2.139-5.17-2.139-2.266 0-4.137.647-4.352 1.505a.521.521 0 0 1-.506.396c-.625 0-1.053.17-1.312.519-.79 1.065-.016 3.62.314 4.711.15.497.203.678.203.836a.52.52 0 0 1-.29.468c-.33.166-.433.563-.462.867-.061.661.181 1.29.324 1.446a.522.522 0 0 1 .428.513c0 2.354 1.398 3.47 1.412 3.482.127.098.201.25.201.411v4.181a.521.521 0 0 1-.34.489c-.771.289-1.514.56-2.223.822-3.87 1.416-6.926 2.535-7.672 4.027-.91 1.82-1.163 3.703-1.235 4.59z" fill-rule="nonzero"></path></svg>