<svg width="23" height="22" viewBox="0 0 23 22" fill="none" xmlns="http://www.w3.org/2000/svg">
<g clip-path="url(#clip0_683_2843)">
<path d="M11.4757 0.377441H1.56347V15.0246L0.910645 21.6227H11.4757" stroke="#040404" stroke-width="1.2" stroke-linecap="round" stroke-linejoin="round"/>
<path d="M11.4756 15.3867H5.40576" stroke="#040404" stroke-width="1.2" stroke-linecap="round" stroke-linejoin="round"/>
<path d="M11.4757 8.93568C8.88418 8.93568 6.78418 6.83474 6.78418 4.24417V3.49512" stroke="#040404" stroke-width="1.2" stroke-linecap="round" stroke-linejoin="round"/>
<path d="M6.3125 3.49514C6.3125 3.23476 6.52382 3.02344 6.7842 3.02344C7.04458 3.02344 7.2559 3.23476 7.2559 3.49514C7.2559 3.75551 7.04458 3.96683 6.7842 3.96683C6.52382 3.96683 6.3125 3.75551 6.3125 3.49514Z" stroke="#040404" stroke-width="1.2" stroke-linecap="round" stroke-linejoin="round"/>
<path d="M11.4756 0.377441H21.3879V15.0246L22.0407 21.6227H11.4756" stroke="#040404" stroke-width="1.2" stroke-linecap="round" stroke-linejoin="round"/>
<path d="M11.4756 15.3867H17.5454" stroke="#040404" stroke-width="1.2" stroke-linecap="round" stroke-linejoin="round"/>
<path d="M11.4756 8.93568C14.0671 8.93568 16.1671 6.83474 16.1671 4.24417V3.49512" stroke="#040404" stroke-width="1.2" stroke-linecap="round" stroke-linejoin="round"/>
<path d="M16.639 3.49514C16.639 3.23476 16.4276 3.02344 16.1673 3.02344C15.9069 3.02344 15.6956 3.23476 15.6956 3.49514C15.6956 3.75551 15.9069 3.96683 16.1673 3.96683C16.4276 3.96683 16.639 3.75551 16.639 3.49514Z" stroke="#040404" stroke-width="1.2" stroke-linecap="round" stroke-linejoin="round"/>
</g>
<defs>
<clipPath id="clip0_683_2843">
<rect width="21.8849" height="22" fill="white" transform="translate(0.533203)"/>
</clipPath>
</defs>
</svg>
