<svg width="20" height="20" viewBox="0 0 20 20" fill="none" xmlns="http://www.w3.org/2000/svg">
<path fill-rule="evenodd" clip-rule="evenodd" d="M10 20C4.47715 20 0 15.5228 0 10C0 4.47715 4.47715 0 10 0C15.5228 0 20 4.47715 20 10C20 15.5228 15.5228 20 10 20ZM10.9375 14.6875C10.9375 15.2051 10.5168 15.625 10 15.625C9.48122 15.625 9.0625 15.206 9.0625 14.6875C9.0625 14.169 9.48122 13.75 10 13.75C10.5168 13.75 10.9375 14.1699 10.9375 14.6875ZM18.75 10C18.75 14.8325 14.8325 18.75 10 18.75C5.16751 18.75 1.25 14.8325 1.25 10C1.25 5.16751 5.16751 1.25 10 1.25C14.8325 1.25 18.75 5.16751 18.75 10Z" fill="#232B33"/>
<path d="M13.4253 7.4375C13.4253 8.96649 12.3982 10.4707 10.6289 10.5307V11.6711C10.6289 11.9133 10.4742 12.3135 10 12.3135C9.52577 12.3135 9.38482 11.9133 9.38482 11.6711V10.1915C9.38482 9.69165 9.60504 9.29578 10.1584 9.29578C11.2449 9.29578 12.0585 8.52642 12.0585 7.4375C12.0585 6.34858 11.2067 5.5625 10.1569 5.5625C9.10716 5.5625 8.47465 6.44188 8.37882 6.93662C8.34125 7.13063 8.20248 7.61446 7.74382 7.61446C7.28516 7.61446 7.125 7.22922 7.125 6.93662C7.125 5.80262 8.12798 4.375 10.1311 4.375C12.1527 4.375 13.4253 5.78723 13.4253 7.4375Z" fill="#232B33"/>
</svg>
