<svg width="22" height="22" viewBox="0 0 22 22" fill="none" xmlns="http://www.w3.org/2000/svg">
<path d="M13.0625 14.4375V18.8082C13.0625 19.1372 12.9977 19.4629 12.8717 19.7667C12.7459 20.0706 12.5614 20.3468 12.3287 20.5793C12.0961 20.8119 11.8199 20.9963 11.5159 21.1221C11.2119 21.248 10.8862 21.3126 10.5573 21.3125H4.56775C4.23879 21.3126 3.91305 21.248 3.6091 21.1221C3.30515 20.9963 3.02897 20.8119 2.79633 20.5793C2.56368 20.3468 2.37914 20.0706 2.25322 19.7667C2.12731 19.4629 2.0625 19.1372 2.0625 18.8082V4.56775C2.0625 3.90331 2.32644 3.26609 2.79627 2.79627C3.26609 2.32644 3.90331 2.0625 4.56775 2.0625H6.875" stroke="#292929" stroke-width="1.2" stroke-linecap="round" stroke-linejoin="round"/>
<path d="M2.0625 17.1875H13.0625" stroke="#292929" stroke-width="1.2" stroke-linecap="round" stroke-linejoin="round"/>
<path d="M14.4375 11.6875C17.4751 11.6875 19.9375 9.22506 19.9375 6.1875C19.9375 3.14993 17.4751 0.6875 14.4375 0.6875C11.3999 0.6875 8.9375 3.14993 8.9375 6.1875C8.9375 9.22506 11.3999 11.6875 14.4375 11.6875Z" stroke="#292929" stroke-width="1.2" stroke-linecap="round" stroke-linejoin="round"/>
<path d="M12.7188 5.15625C12.7188 4.81631 12.8196 4.48401 13.0084 4.20137C13.1972 3.91871 13.4657 3.69842 13.7798 3.56834C14.0938 3.43824 14.4394 3.40421 14.7728 3.47053C15.1062 3.53685 15.4125 3.70054 15.6528 3.94092C15.8932 4.18128 16.0569 4.48753 16.1233 4.82094C16.1895 5.15434 16.1555 5.49993 16.0254 5.81399C15.8954 6.12805 15.675 6.39648 15.3924 6.58534C15.1098 6.77419 14.7774 6.875 14.4375 6.875" stroke="#292929" stroke-width="1.2" stroke-linecap="round" stroke-linejoin="round"/>
<path d="M14.4375 9.625C14.2477 9.625 14.0938 9.47109 14.0938 9.28125C14.0938 9.0914 14.2477 8.9375 14.4375 8.9375" stroke="#292929" stroke-width="1.2"/>
<path d="M14.4375 9.625C14.6273 9.625 14.7813 9.47109 14.7813 9.28125C14.7813 9.0914 14.6273 8.9375 14.4375 8.9375" stroke="#292929" stroke-width="1.2"/>
</svg>
