<svg width="16" height="16" viewBox="0 0 16 16" fill="none" xmlns="http://www.w3.org/2000/svg">
<path d="M12.2427 11.576L8 15.8186L3.75736 11.576C1.41421 9.2328 1.41421 5.43384 3.75736 3.09069C6.10051 0.747542 9.89947 0.747542 12.2427 3.09069C14.5858 5.43384 14.5858 9.2328 12.2427 11.576ZM8 10C9.47273 10 10.6667 8.80606 10.6667 7.33333C10.6667 5.86057 9.47273 4.66666 8 4.66666C6.52724 4.66666 5.33333 5.86057 5.33333 7.33333C5.33333 8.80606 6.52724 10 8 10ZM8 8.66666C7.2636 8.66666 6.66667 8.06973 6.66667 7.33333C6.66667 6.59695 7.2636 6 8 6C8.7364 6 9.33333 6.59695 9.33333 7.33333C9.33333 8.06973 8.7364 8.66666 8 8.66666Z" fill="white"/>
</svg>
